<svg xmlns="http://www.w3.org/2000/svg" xml:space="preserve" width="2048" height="2048" style="shape-rendering:geometricPrecision;text-rendering:geometricPrecision;image-rendering:optimizeQuality;fill-rule:evenodd;clip-rule:evenodd"><defs><style>.fil1{fill:#003366}.fil2{fill:#003366}.fil3{fill:#003366}</style></defs><g id="Layer_x0020_1"><path style="fill:#003366;fill-rule:nonzero" d="M1504 319.999h288V410.247l.99 1.053-.99.935v192.711l-99.73-98.677-583.26 549.931-254.497-254.493L302.125 1216l-68.251-91 631.51-473.631 246.066 246.063 499.84-471.282z"/><path class="fil1" d="M1453.15 971.035v693.445h-114V971.035z"/><path class="fil2" d="M1202.92 1149.77v514.71h-114v-514.71zM452.233 1221.26v443.22h-114v-443.22z"/><path class="fil3" d="M702.462 1078.28v586.2h-114v-586.2z"/><path class="fil1" d="M952.691 947.778v716.702h-114V947.778z"/><path class="fil3" d="M1667.63 685.059v979.421h-114V685.059z"/></g><path style="fill:none" d="M0 0h2048v2048H0z"/></svg>